<svg width="60" height="60" viewBox="0 0 60 60" fill="none" xmlns="http://www.w3.org/2000/svg">
<g opacity="0.15">
<path d="M43.8512 45.2437C43.5511 44.4937 42.8196 44.0062 41.9944 44.0062H15.9988V17.9999C15.9988 16.8937 15.0985 15.9937 14.0106 15.9937C13.4855 15.9937 12.9603 16.1999 12.5852 16.5749L0.581432 28.5749C0.206314 28.9499 0 29.4562 0 29.9999V57.9936C0 59.0999 0.900281 59.9999 2.00688 59.9999H30.0094C30.5345 59.9999 31.041 59.7937 31.4348 59.4187L43.4386 47.4187C43.9825 46.8374 44.1513 45.9749 43.8512 45.2437Z" fill="black"/>
<path d="M58.0117 0H5.98295C4.87636 0 3.97607 0.9 3.97607 1.9875C3.97607 2.5125 4.18239 3.0375 4.55751 3.4125L16.5613 15.4125C16.9364 15.7875 17.4428 15.9938 17.9867 15.9938H44.0011V42C44.0011 42.525 44.2074 43.0312 44.5825 43.425L56.5863 55.425C57.374 56.2125 58.6307 56.2125 59.4184 55.425C59.7935 55.05 59.9998 54.5438 59.9998 54V2.00625C59.9998 0.9 59.1183 0 58.0117 0Z" fill="black"/>
</g>
</svg>
